<?xml version="1.0" encoding="utf-8"?>
<!-- Generator: Adobe Illustrator 19.0.0, SVG Export Plug-In . SVG Version: 6.00 Build 0)  -->
<svg version="1.1" id="Calque_1" xmlns="http://www.w3.org/2000/svg" xmlns:xlink="http://www.w3.org/1999/xlink" x="0px" y="0px"
	 viewBox="0 0 33.9 9.1" style="enable-background:new 0 0 33.9 9.1;" xml:space="preserve">
<metadata><?xpacket begin="﻿" id="W5M0MpCehiHzreSzNTczkc9d"?>
<x:xmpmeta xmlns:x="adobe:ns:meta/" x:xmptk="Adobe XMP Core 5.6-c067 79.157747, 2015/03/30-23:40:42        ">
   <rdf:RDF xmlns:rdf="http://www.w3.org/1999/02/22-rdf-syntax-ns#">
      <rdf:Description rdf:about=""/>
   </rdf:RDF>
</x:xmpmeta>
                                                                                                    
                                                                                                    
                                                                                                    
                                                                                                    
                                                                                                    
                                                                                                    
                                                                                                    
                                                                                                    
                                                                                                    
                                                                                                    
                                                                                                    
                                                                                                    
                                                                                                    
                                                                                                    
                                                                                                    
                                                                                                    
                                                                                                    
                                                                                                    
                                                                                                    
                                                                                                    
                           
<?xpacket end="w"?></metadata>
<style type="text/css">
	.st0{fill:#3C3D4C;}
</style>
<path class="st0" d="M12,6.5c1,1.3,2.5,2.7,5,2.7c3.6,0,5.2-2.2,6.5-3.7C24.6,4,25.4,3,27.2,3c3.2,0,3.7,3.5,3.7,3.6l0,0.5l3-0.1
	V6.5c0-0.9-1.3-6.5-6.7-6.5c-3.3,0-4.8,2-6.1,3.6C20,5,19.1,6.1,17,6.1c-2.2,0-3.2-2.2-3.5-3.5l-0.2-0.5l-2.8,0l-0.1,0.4
	c0,0.1-0.5,3.5-4,3.5C3.6,6.1,3.1,3.3,3,2.7L2.9,2.3H0l0,0.5c0,1,1.1,6.4,6.5,6.4C9.3,9.1,11,7.8,12,6.5z"/>
</svg>
